<?xml version="1.0" encoding="UTF-8"?>
<!DOCTYPE svg PUBLIC "-//W3C//DTD SVG 1.1//EN" "http://www.w3.org/Graphics/SVG/1.1/DTD/svg11.dtd">
<svg xmlns="http://www.w3.org/2000/svg" version="1.1" width="192px" height="192px" style="shape-rendering:geometricPrecision; text-rendering:geometricPrecision; image-rendering:optimizeQuality; fill-rule:evenodd; clip-rule:evenodd" xmlns:xlink="http://www.w3.org/1999/xlink">
<g><path style="opacity:0.998" fill="#9ac831" d="M 80.5,-0.5 C 90.5,-0.5 100.5,-0.5 110.5,-0.5C 133.693,3.76186 153.026,14.7619 168.5,32.5C 165.918,32.0254 163.918,32.6921 162.5,34.5C 126.575,0.968435 87.2417,-3.53156 44.5,21C 34.5967,28.0689 26.2634,36.5689 19.5,46.5C 18.1979,44.9724 16.5313,43.9724 14.5,43.5C 30.0953,19.3596 52.0953,4.69294 80.5,-0.5 Z"/></g>
<g><path style="opacity:1" fill="#9dc92d" d="M 133.5,18.5 C 121.185,19.8325 108.518,20.4991 95.5,20.5C 82.4819,20.4991 69.8153,19.8325 57.5,18.5C 82.8333,6.5 108.167,6.5 133.5,18.5 Z"/></g>
<g><path style="opacity:1" fill="#93c629" d="M 57.5,18.5 C 69.8153,19.8325 82.4819,20.4991 95.5,20.5C 108.518,20.4991 121.185,19.8325 133.5,18.5C 140.354,22.092 146.687,26.4253 152.5,31.5C 114.916,32.5195 77.2493,32.5195 39.5,31.5C 44.7551,26.1991 50.7551,21.8658 57.5,18.5 Z"/></g>
<g><path style="opacity:1" fill="#8cc42a" d="M 39.5,31.5 C 77.2493,32.5195 114.916,32.5195 152.5,31.5C 155.573,33.5691 157.906,36.2358 159.5,39.5C 116.82,40.1612 74.4868,39.4946 32.5,37.5C 34.2393,34.7573 36.5726,32.7573 39.5,31.5 Z"/></g>
<g><path style="opacity:1" fill="#86c32a" d="M 32.5,37.5 C 74.4868,39.4946 116.82,40.1612 159.5,39.5C 162.973,41.6367 165.306,44.6367 166.5,48.5C 165.711,48.2172 165.044,47.7172 164.5,47C 118.5,46.3333 72.5,46.3333 26.5,47C 25.9558,47.7172 25.2891,48.2172 24.5,48.5C 26.4002,44.2679 29.0669,40.6012 32.5,37.5 Z"/></g>
<g><path style="opacity:1" fill="#81c22c" d="M 166.5,48.5 C 169,51.4937 171,54.827 172.5,58.5C 171.711,58.2172 171.044,57.7172 170.5,57C 152.167,56.3333 133.833,56.3333 115.5,57C 114.756,58.0386 113.756,58.5386 112.5,58.5C 114.023,55.6356 116.357,53.969 119.5,53.5C 119.719,52.325 119.386,51.325 118.5,50.5C 117.482,51.1925 116.482,51.8592 115.5,52.5C 100.515,51.1672 85.1815,50.5006 69.5,50.5C 53.7608,50.5074 38.0942,50.8407 22.5,51.5C 22.427,49.9731 23.0937,48.9731 24.5,48.5C 25.2891,48.2172 25.9558,47.7172 26.5,47C 72.5,46.3333 118.5,46.3333 164.5,47C 165.044,47.7172 165.711,48.2172 166.5,48.5 Z"/></g>
<g><path style="opacity:1" fill="#7bc02e" d="M 115.5,52.5 C 114.064,53.4286 112.731,54.5952 111.5,56C 110.216,56.6838 109.049,56.5171 108,55.5C 105.832,56.6291 105.332,58.1291 106.5,60C 101.669,65.5228 95.8356,69.3561 89,71.5C 89.5071,75.5282 89.3404,79.5282 88.5,83.5C 85.6755,83.9193 83.5088,82.9193 82,80.5C 75.9701,72.2922 73.8034,63.4589 75.5,54C 73.6467,53.4487 72.3133,54.1153 71.5,56C 73.7213,57.6692 74.0546,59.6692 72.5,62C 73.2145,65.5062 73.8811,69.0062 74.5,72.5C 73.8826,72.3893 73.3826,72.056 73,71.5C 72.7132,69.1093 72.2132,66.7759 71.5,64.5C 53.1788,63.5004 34.8454,63.1671 16.5,63.5C 17.4654,58.9024 19.4654,54.9024 22.5,51.5C 38.0942,50.8407 53.7608,50.5074 69.5,50.5C 85.1815,50.5006 100.515,51.1672 115.5,52.5 Z"/></g>
<g><path style="opacity:0.998" fill="#75be2d" d="M 172.5,58.5 C 176.216,65.6538 178.549,73.3205 179.5,81.5C 179.5,83.5 179.5,85.5 179.5,87.5C 177.167,87.5 174.833,87.5 172.5,87.5C 172.975,84.9179 172.308,82.9179 170.5,81.5C 170.047,80.5416 169.381,79.7083 168.5,79C 161.712,76.9709 155.045,74.6376 148.5,72C 147.167,70.6667 145.833,69.3333 144.5,68C 145.784,66.7025 145.617,65.5358 144,64.5C 142.961,65.2438 142.461,66.2438 142.5,67.5C 142.5,68.5 142.5,69.5 142.5,70.5C 128.829,70.6666 115.163,70.4999 101.5,70C 102.252,69.3292 102.586,68.4959 102.5,67.5C 105.792,64.5095 109.126,61.5095 112.5,58.5C 113.756,58.5386 114.756,58.0386 115.5,57C 133.833,56.3333 152.167,56.3333 170.5,57C 171.044,57.7172 171.711,58.2172 172.5,58.5 Z"/></g>
<g><path style="opacity:0.999" fill="#7ac034" d="M 168.5,32.5 C 180.368,45.91 187.702,61.5766 190.5,79.5C 188.958,78.6993 187.292,78.366 185.5,78.5C 185.5,80.5 185.5,82.5 185.5,84.5C 182.182,65.8626 174.516,49.1959 162.5,34.5C 163.918,32.6921 165.918,32.0254 168.5,32.5 Z"/></g>
<g><path style="opacity:1" fill="#70bd2d" d="M 16.5,63.5 C 34.8454,63.1671 53.1788,63.5004 71.5,64.5C 72.2132,66.7759 72.7132,69.1093 73,71.5C 73.3826,72.056 73.8826,72.3893 74.5,72.5C 74.0398,75.7413 74.0398,79.0747 74.5,82.5C 72.9743,81.8953 71.9743,80.7286 71.5,79C 61.6667,78.8333 51.8333,78.6667 42,78.5C 31.606,78.5244 21.4393,79.1911 11.5,80.5C 12.1873,74.4482 13.854,68.7815 16.5,63.5 Z"/></g>
<g><path style="opacity:1" fill="#72be35" d="M 14.5,43.5 C 16.5313,43.9724 18.1979,44.9724 19.5,46.5C 11.4323,60.0383 6.76563,74.7049 5.5,90.5C 4.56552,89.4324 4.23219,88.099 4.5,86.5C 2.4458,86.3653 0.779138,87.032 -0.5,88.5C -0.5,85.8333 -0.5,83.1667 -0.5,80.5C 1.95345,67.1408 6.95345,54.8075 14.5,43.5 Z"/></g>
<g><path style="opacity:1" fill="#66bb2e" d="M 74.5,82.5 C 78.622,80.581 81.2886,81.9143 82.5,86.5C 59.0059,87.4976 35.3392,87.8309 11.5,87.5C 11.7373,88.791 11.404,89.791 10.5,90.5C 10.2529,87.0613 10.5863,83.728 11.5,80.5C 21.4393,79.1911 31.606,78.5244 42,78.5C 51.8333,78.6667 61.6667,78.8333 71.5,79C 71.9743,80.7286 72.9743,81.8953 74.5,82.5 Z"/></g>
<g><path style="opacity:1" fill="#69bb2f" d="M 102.5,67.5 C 102.586,68.4959 102.252,69.3292 101.5,70C 115.163,70.4999 128.829,70.6666 142.5,70.5C 142.5,69.5 142.5,68.5 142.5,67.5C 143.847,70.3663 145.847,72.8663 148.5,75C 153.167,77 157.833,79 162.5,81C 165.904,83.6104 166.571,86.4437 164.5,89.5C 149.155,87.8141 133.489,86.8141 117.5,86.5C 109.882,87.3014 102.216,87.8014 94.5,88C 93.9152,89.3024 93.2485,90.469 92.5,91.5C 93.0355,87.181 93.5355,82.8477 94,78.5C 96.3145,74.362 99.1479,70.6953 102.5,67.5 Z"/></g>
<g><path style="opacity:1" fill="#60ba31" d="M 164.5,89.5 C 157.497,93.8413 149.83,96.8413 141.5,98.5C 140.228,98.4302 139.062,98.0968 138,97.5C 138.253,94.867 138.253,92.2004 138,89.5C 136.672,92.7861 135.339,96.1194 134,99.5C 132.11,102.52 129.61,103.186 126.5,101.5C 122.814,101.853 120.814,103.853 120.5,107.5C 119.904,106.065 119.904,104.398 120.5,102.5C 109.245,101.891 98.2451,102.558 87.5,104.5C 88.8853,100.062 90.552,95.7287 92.5,91.5C 93.2485,90.469 93.9152,89.3024 94.5,88C 102.216,87.8014 109.882,87.3014 117.5,86.5C 133.489,86.8141 149.155,87.8141 164.5,89.5 Z"/></g>
<g><path style="opacity:1" fill="#5fb932" d="M 82.5,86.5 C 84.4594,88.2464 85.7927,90.4131 86.5,93C 85.5874,96.9922 83.7541,100.492 81,103.5C 77.5517,101.012 74.5517,101.678 72,105.5C 71.7811,106.938 71.2811,108.271 70.5,109.5C 65.9787,110.426 61.6453,111.926 57.5,114C 53.1667,114.667 48.8333,114.667 44.5,114C 42.4732,112.604 42.1398,110.938 43.5,109C 47.3135,109.51 48.6468,107.844 47.5,104C 49.9031,100.689 51.9031,97.1894 53.5,93.5C 49.0322,98.1387 44.6989,102.972 40.5,108C 37.224,110.831 33.8907,110.997 30.5,108.5C 28.9707,108.529 27.804,109.196 27,110.5C 22.2574,107.26 18.4241,103.26 15.5,98.5C 15.1667,98.8333 14.8333,99.1667 14.5,99.5C 15.6302,100.622 16.2969,101.956 16.5,103.5C 14.1914,103.012 12.1914,102.012 10.5,100.5C 9.16667,97.1667 9.16667,93.8333 10.5,90.5C 11.404,89.791 11.7373,88.791 11.5,87.5C 35.3392,87.8309 59.0059,87.4976 82.5,86.5 Z M 53.5,93.5 C 53.1794,90.1198 54.1794,89.2865 56.5,91C 55.6266,92.045 54.6266,92.8783 53.5,93.5 Z"/></g>
<g><path style="opacity:1" fill="#59b834" d="M 170.5,81.5 C 172.308,82.9179 172.975,84.9179 172.5,87.5C 174.833,87.5 177.167,87.5 179.5,87.5C 179.5,85.5 179.5,83.5 179.5,81.5C 182.078,92.5636 181.744,103.564 178.5,114.5C 178.5,113.5 178.5,112.5 178.5,111.5C 162.991,111.83 147.658,111.496 132.5,110.5C 135.039,107.81 138.039,105.643 141.5,104C 147.22,102.32 152.887,100.487 158.5,98.5C 164.606,102.863 167.772,101.196 168,93.5C 171.589,90.1737 172.422,86.1737 170.5,81.5 Z"/></g>
<g><path style="opacity:1" fill="#51b534" d="M 120.5,107.5 C 121.391,108.261 122.058,109.261 122.5,110.5C 118.722,116.843 115.722,123.51 113.5,130.5C 109.865,133.409 105.865,134.076 101.5,132.5C 102.958,123.99 99.625,120.656 91.5,122.5C 86.0223,117.271 84.689,111.271 87.5,104.5C 98.2451,102.558 109.245,101.891 120.5,102.5C 119.904,104.398 119.904,106.065 120.5,107.5 Z"/></g>
<g><path style="opacity:1" fill="#4db535" d="M 10.5,100.5 C 12.1914,102.012 14.1914,103.012 16.5,103.5C 19.9727,108.634 24.6394,112.301 30.5,114.5C 32.4325,113.48 34.4325,113.313 36.5,114C 42.5022,118.334 49.1688,120.001 56.5,119C 62.9007,116.12 69.5674,114.787 76.5,115C 82.6768,118.777 85.6768,124.11 85.5,131C 78.7998,132.589 72.9665,131.089 68,126.5C 67.5172,125.552 67.3505,124.552 67.5,123.5C 65.8212,123.285 64.8212,123.952 64.5,125.5C 48.244,124.516 31.9107,124.182 15.5,124.5C 12.0622,116.982 10.3955,108.982 10.5,100.5 Z"/></g>
<g><path style="opacity:1" fill="#48b332" d="M 132.5,110.5 C 147.658,111.496 162.991,111.83 178.5,111.5C 178.5,112.5 178.5,113.5 178.5,114.5C 177.381,122.205 174.714,129.205 170.5,135.5C 164.034,134.17 157.201,133.503 150,133.5C 142.757,133.517 135.59,133.85 128.5,134.5C 124.284,125.578 125.618,117.578 132.5,110.5 Z"/></g>
<g><path style="opacity:1" fill="#42b233" d="M 15.5,124.5 C 31.9107,124.182 48.244,124.516 64.5,125.5C 67.2139,128.215 70.2139,130.549 73.5,132.5C 55.643,132.838 37.9764,133.838 20.5,135.5C 17.8872,132.355 16.2205,128.689 15.5,124.5 Z"/></g>
<g><path style="opacity:0.995" fill="#53b739" d="M 5.5,90.5 C 4.91156,107.811 8.57823,124.144 16.5,139.5C 14.5976,138.489 12.5976,138.322 10.5,139C 11.8613,140.584 12.528,142.418 12.5,144.5C 6.1895,133.899 1.85616,122.565 -0.5,110.5C -0.5,103.167 -0.5,95.8333 -0.5,88.5C 0.779138,87.032 2.4458,86.3653 4.5,86.5C 4.23219,88.099 4.56552,89.4324 5.5,90.5 Z"/></g>
<g><path style="opacity:0.995" fill="#53b739" d="M 190.5,79.5 C 190.5,80.1667 190.833,80.5 191.5,80.5C 191.5,90.5 191.5,100.5 191.5,110.5C 189.422,121.065 185.756,131.065 180.5,140.5C 179.012,138.155 177.012,137.821 174.5,139.5C 183.394,122.251 187.06,103.918 185.5,84.5C 185.5,82.5 185.5,80.5 185.5,78.5C 187.292,78.366 188.958,78.6993 190.5,79.5 Z"/></g>
<g><path style="opacity:0.999" fill="#3eb035" d="M 73.5,132.5 C 75.9925,133.774 78.6592,134.44 81.5,134.5C 81.33,135.822 81.6634,136.989 82.5,138C 84.9383,138.682 87.1049,138.182 89,136.5C 94.8256,136.986 100.326,138.319 105.5,140.5C 92.1381,140.849 78.4714,140.849 64.5,140.5C 50.8162,140.501 37.4829,141.167 24.5,142.5C 22.412,140.664 21.0787,138.331 20.5,135.5C 37.9764,133.838 55.643,132.838 73.5,132.5 Z"/></g>
<g><path style="opacity:0.999" fill="#3ab035" d="M 170.5,135.5 C 166.069,145.6 159.403,153.933 150.5,160.5C 146.512,158.217 143.679,154.884 142,150.5C 137.289,145.294 132.789,139.961 128.5,134.5C 135.59,133.85 142.757,133.517 150,133.5C 157.201,133.503 164.034,134.17 170.5,135.5 Z"/></g>
<g><path style="opacity:1" fill="#35ae34" d="M 105.5,140.5 C 111.667,142.083 116.667,145.417 120.5,150.5C 105.376,149.849 90.2095,149.515 75,149.5C 60.1509,149.501 45.6509,150.167 31.5,151.5C 28.027,149.363 25.6936,146.363 24.5,142.5C 37.4829,141.167 50.8162,140.501 64.5,140.5C 78.4714,140.849 92.1381,140.849 105.5,140.5 Z"/></g>
<g><path style="opacity:1" fill="#2fad34" d="M 120.5,150.5 C 122.25,151.659 123.25,153.326 123.5,155.5C 95.1667,156.833 66.8333,158.167 38.5,159.5C 35.4275,157.431 33.0941,154.764 31.5,151.5C 45.6509,150.167 60.1509,149.501 75,149.5C 90.2095,149.515 105.376,149.849 120.5,150.5 Z"/></g>
<g><path style="opacity:1" fill="#28ab35" d="M 123.5,155.5 C 124.931,156.78 125.598,158.447 125.5,160.5C 125.5,161.833 125.5,163.167 125.5,164.5C 98.8333,164.5 72.1667,164.5 45.5,164.5C 42.9066,163.246 40.5732,161.58 38.5,159.5C 66.8333,158.167 95.1667,156.833 123.5,155.5 Z"/></g>
<g><path style="opacity:1" fill="#26aa38" d="M 125.5,160.5 C 130.117,171.546 126.45,177.712 114.5,179C 89.2079,184.31 66.2079,179.476 45.5,164.5C 72.1667,164.5 98.8333,164.5 125.5,164.5C 125.5,163.167 125.5,161.833 125.5,160.5 Z"/></g>
<g><path style="opacity:0.998" fill="#31ae3e" d="M 180.5,140.5 C 169.843,160.987 153.843,175.82 132.5,185C 128.284,186.684 123.951,187.851 119.5,188.5C 120.263,187.732 121.263,187.232 122.5,187C 115.987,186.828 109.653,186.328 103.5,185.5C 134.699,181.423 158.366,166.09 174.5,139.5C 177.012,137.821 179.012,138.155 180.5,140.5 Z"/></g>
<g><path style="opacity:1" fill="#2bac3b" d="M 16.5,139.5 C 36.4888,171.334 65.4888,186.667 103.5,185.5C 109.653,186.328 115.987,186.828 122.5,187C 121.263,187.232 120.263,187.732 119.5,188.5C 116.535,189.626 113.535,190.626 110.5,191.5C 100.5,191.5 90.5,191.5 80.5,191.5C 50.7289,186.055 28.0623,170.388 12.5,144.5C 12.528,142.418 11.8613,140.584 10.5,139C 12.5976,138.322 14.5976,138.489 16.5,139.5 Z"/></g>
</svg>
